<?xml version="1.0" standalone="no"?>
<!DOCTYPE svg PUBLIC "-//W3C//DTD SVG 20010904//EN"
 "http://www.w3.org/TR/2001/REC-SVG-20010904/DTD/svg10.dtd">
<svg version="1.0" xmlns="http://www.w3.org/2000/svg"
 width="500.000000pt" height="500.000000pt" viewBox="0 0 500.000000 500.000000"
 preserveAspectRatio="xMidYMid meet">

<g transform="translate(0.000000,500.000000) scale(0.100000,-0.100000)"
fill="#000000" stroke="none">
<path d="M0 2500 l0 -2500 145 0 145 0 0 850 0 850 755 0 755 0 0 -850 0 -850
170 0 170 0 0 95 0 95 155 0 155 0 0 -95 0 -95 170 0 170 0 0 850 0 850 970 0
970 0 0 -850 0 -850 135 0 135 0 0 1985 0 1985 -2355 0 -2355 0 0 515 0 515
-145 0 -145 0 0 -2500z m1800 340 l0 -790 -755 0 -755 0 0 790 0 790 755 0
755 0 0 -790z m650 710 l0 -81 -152 3 -153 3 -3 64 c-2 35 -1 70 2 77 4 11 38
14 156 14 l150 0 0 -80z m2280 -710 l0 -790 -970 0 -970 0 0 783 c0 431 3 787
7 790 3 4 440 7 970 7 l963 0 0 -790z m-2280 220 l0 -70 -155 0 -155 0 0 70 0
70 155 0 155 0 0 -70z m0 -465 l0 -55 -155 0 -155 0 0 48 c0 27 3 52 7 55 3 4
73 7 155 7 l148 0 0 -55z m0 -470 l0 -75 -155 0 -155 0 0 68 c0 38 3 72 7 75
3 4 73 7 155 7 l148 0 0 -75z m0 -495 l0 -70 -155 0 -155 0 0 70 0 70 155 0
155 0 0 -70z m0 -500 l0 -80 -155 0 -155 0 0 80 0 80 155 0 155 0 0 -80z m0
-515 l0 -86 -152 3 -153 3 -3 83 -3 82 156 0 155 0 0 -85z"/>
</g>
</svg>
